<svg version="1.1" id="Layer_1" xmlns="http://www.w3.org/2000/svg" x="0" y="0" viewBox="0 0 256 256" style="enable-background:new 0 0 256 256" xml:space="preserve"><style>.st0{fill:#382b73}.st2{fill:#fff}.st3{fill:#fede3a}.st4{fill:#bcbec0}.st5{fill:#e7ad27}.st6{fill:#009add}.st7{fill:#1caee4}.st8{fill:#27c1e6}.st10{fill:#f7cb15}</style><switch><g><circle class="st0" cx="128" cy="128" r="119.4"/><circle cx="128" cy="128" r="103.299" style="fill:#473080"/><path class="st0" d="M205.888 176.589c.07-.203.125-.409.184-.614.049-.172.102-.342.144-.515.059-.242.104-.484.147-.727.024-.134.05-.266.07-.4a13.505 13.505 0 0 0 .132-2.028l-.004-.19c-.01-.33-.031-.659-.067-.986l-.011-.091c-.443-3.855-2.628-7.46-6.247-9.549-4.855-2.803-10.787-2.024-14.761 1.505l-19.219-11.096v-22.415a38.458 38.458 0 0 0 1.752-1.922 3.17 3.17 0 0 0 .735-2.053v-8.844l14.015-8.091 2.717-1.569a12.683 12.683 0 0 0 13.142 2.278 12.723 12.723 0 0 0 1.619-.772c.347-.2.676-.418.997-.645.102-.072.197-.148.296-.223a12.96 12.96 0 0 0 .941-.78c.191-.175.373-.355.551-.54.091-.094.184-.186.272-.283.222-.244.432-.497.632-.756.075-.097.146-.197.218-.296.166-.229.327-.462.478-.701.09-.143.172-.29.256-.436a12.82 12.82 0 0 0 .529-1.021c.071-.155.136-.311.201-.468.078-.188.156-.375.224-.567.04-.112.072-.226.109-.339.149-.456.272-.919.368-1.39.015-.072.034-.143.047-.215.047-.251.081-.503.113-.757.012-.096.025-.192.034-.289a12.566 12.566 0 0 0 .061-1.009 12.601 12.601 0 0 0-1.683-6.614c-3.503-6.067-11.26-8.146-17.327-4.643-3.287 1.898-5.391 5.048-6.083 8.499-.07.347-.123.697-.164 1.05l-.011.091c-.035.328-.057.657-.067.987l-.004.187c-.004.304.001.608.019.913.005.096.014.192.022.289.022.277.05.553.091.829.019.132.046.263.069.394.018.099.032.198.051.296l-.017.01-13.872 8.009a3.196 3.196 0 0 0-.948-.554 3.188 3.188 0 0 0-1.108-.208h-23.272v-1.473a.803.803 0 0 0-.803-.803h-.83c-.219-3.384-3.714-6.152-8.625-7.139V71.877a12.69 12.69 0 0 0 6.1-4.38 12.608 12.608 0 0 0 2.343-10.095c-.004-.018-.005-.037-.008-.055-1.161-5.808-6.286-10.184-12.435-10.184s-11.274 4.377-12.435 10.184l-.004.029a12.647 12.647 0 0 0-.244 2.439l-.001.032a12.735 12.735 0 0 0 .571 3.772c.164.526.372 1.031.6 1.526a12.704 12.704 0 0 0 7.514 6.732v26.041c-4.912.986-8.406 3.754-8.625 7.139h-.83a.803.803 0 0 0-.803.803v1.473H90.47c-.376 0-.731.077-1.066.195l-13.26-7.656c.02-.097.033-.195.051-.293.024-.133.05-.266.07-.4.041-.275.068-.55.091-.825.008-.097.016-.194.022-.291.018-.305.023-.608.019-.911l-.004-.19c-.01-.33-.031-.658-.066-.985l-.011-.094a13.191 13.191 0 0 0-.163-1.048c-.692-3.451-2.796-6.6-6.083-8.498-6.07-3.503-13.827-1.425-17.33 4.642a12.636 12.636 0 0 0-1.44 3.828 12.565 12.565 0 0 0-.243 2.781c.002.08.002.159.005.239.011.259.029.516.056.773.01.098.023.195.035.293.032.252.066.504.112.753.014.075.033.148.048.223.096.465.218.924.365 1.376.037.116.07.233.111.347.068.19.146.377.223.564a12.367 12.367 0 0 0 .731 1.492c.084.146.166.293.255.435.15.239.311.471.478.701.072.099.143.2.219.297.2.259.41.51.63.754.089.097.183.19.275.285a12.687 12.687 0 0 0 .862.816c.202.174.412.34.628.502.099.075.196.152.298.224.32.227.65.444.996.644a12.676 12.676 0 0 0 3.552 1.392 12.68 12.68 0 0 0 7.232-.496 12.672 12.672 0 0 0 2.194-1.069 12.567 12.567 0 0 0 1.782-1.333l2.717 1.569 12.397 7.157v9.982c0 .749.251 1.482.735 2.053a38.458 38.458 0 0 0 1.752 1.922v23.554l-17.601 10.162c-3.973-3.529-9.905-4.308-14.76-1.505-3.287 1.898-5.391 5.048-6.083 8.498-.069.347-.123.696-.164 1.048l-.011.094c-.035.327-.057.655-.067.985l-.004.19c-.004.303.001.607.019.911.005.097.014.194.022.291.022.276.05.551.091.826.019.133.046.265.069.398.044.244.089.487.148.729.042.173.094.343.143.514.059.205.114.411.184.615.076.223.169.443.259.664.062.153.116.307.185.458a12.676 12.676 0 0 0 2.946 4.086 12.706 12.706 0 0 0 11.396 3.054 12.688 12.688 0 0 0 3.552-1.392l.003-.002c.345-.199.674-.416.993-.642.102-.073.199-.15.299-.225a12.826 12.826 0 0 0 .94-.78c.189-.174.371-.354.548-.537.092-.095.186-.188.274-.285.221-.244.431-.496.631-.755.075-.097.146-.197.218-.296.167-.23.328-.462.478-.702.09-.143.171-.289.255-.435a12.919 12.919 0 0 0 .529-1.021c.071-.155.137-.313.202-.471.077-.187.155-.374.223-.564.041-.114.074-.231.111-.346.147-.452.269-.912.365-1.378.015-.074.034-.147.048-.221.047-.25.081-.501.112-.754.012-.097.025-.195.035-.293.026-.257.045-.514.056-.773.003-.079.004-.159.005-.239a12.56 12.56 0 0 0-.243-2.781l-.006-.037 13.6-7.852v.985a3.213 3.213 0 0 0 3.213 3.213H124v31.648c-4.273 1.421-7.538 5.044-8.435 9.531l-.005.033a12.707 12.707 0 0 0-.244 2.467c0 .876.089 1.731.258 2.556.169.826.418 1.622.739 2.381.26.615.579 1.198.929 1.759.174.279.358.549.553.813a12.786 12.786 0 0 0 2.137 2.278 12.64 12.64 0 0 0 8.068 2.897c2.627 0 5.067-.799 7.092-2.166a12.77 12.77 0 0 0 2.696-2.45 12.63 12.63 0 0 0 2.656-10.509c-.004-.019-.005-.04-.009-.059-.897-4.486-4.162-8.11-8.435-9.531v-31.648h31.043a3.214 3.214 0 0 0 3.213-3.213v-2.124l15.219 8.786-.007.037a12.577 12.577 0 0 0-.243 2.783c.002.078.002.157.005.235a11.772 11.772 0 0 0 .091 1.065c.032.253.066.505.113.756.013.073.032.144.047.216.096.469.219.932.368 1.388.037.113.069.228.109.34.069.192.147.38.225.568a11.871 11.871 0 0 0 .448.974c.089.173.184.344.281.513.084.147.166.294.257.438.149.237.309.468.474.696.074.102.147.204.225.305.199.257.408.508.628.751.088.097.182.19.274.285a12.154 12.154 0 0 0 1.491 1.318c.099.074.195.151.297.223a12.622 12.622 0 0 0 8.221 2.315 12.715 12.715 0 0 0 7.722-3.331 12.682 12.682 0 0 0 2.946-4.088c.068-.15.122-.303.183-.455.088-.219.181-.44.258-.664zm-86.456-71.532h-.834c.366-2.107 4.12-4.318 9.402-4.318s9.036 2.211 9.402 4.318h-.834a.803.803 0 0 0-.803.803v1.473h-3.849v-.017h-7.833v.017h-3.849v-1.473a.8.8 0 0 0-.802-.803z"/><g><path class="st2" d="M124 52.847h8v38.286h-8zM128 207.153a4 4 0 0 1-4-4v-47.695a4 4 0 0 1 8 0v47.695a4 4 0 0 1-4 4zM63.729 169.679a4 4 0 0 1-2.004-7.465l32.646-18.848a4 4 0 0 1 4 6.928l-32.646 18.848a3.98 3.98 0 0 1-1.996.537zM161.77 113.075a4 4 0 0 1-2.004-7.464l32.127-18.548a4 4 0 1 1 4 6.928l-32.127 18.548a3.983 3.983 0 0 1-1.996.536zM96.366 113.169a3.986 3.986 0 0 1-1.996-.536L61.725 93.786a4 4 0 0 1 4-6.928l32.646 18.848a4 4 0 0 1-2.005 7.463zM193.89 169.475a3.977 3.977 0 0 1-1.996-.537l-32.127-18.548a4 4 0 0 1 4-6.928l32.127 18.548a4 4 0 0 1-2.004 7.465z"/><circle transform="rotate(-45.001 128 52.849)" class="st3" cx="128" cy="52.847" r="12.684"/><path class="st4" d="M128 65.531c-1.399 0-2.741-.235-4-.654v5c1.259.418 2.601.654 4 .654s2.741-.235 4-.654v-5a12.636 12.636 0 0 1-4 .654z"/><path class="st5" d="M128 60.531c-6.149 0-11.274-4.376-12.435-10.184a12.708 12.708 0 0 0-.249 2.5c0 7.005 5.679 12.684 12.684 12.684 7.005 0 12.684-5.679 12.684-12.684 0-.856-.087-1.692-.249-2.5-1.161 5.808-6.286 10.184-12.435 10.184z"/><circle transform="rotate(-76.714 128.015 203.164)" class="st3" cx="128" cy="203.153" r="12.684"/><path class="st5" d="M128 210.837c-6.149 0-11.274-4.377-12.435-10.184a12.715 12.715 0 0 0-.249 2.5c0 7.005 5.679 12.684 12.684 12.684 7.005 0 12.684-5.679 12.684-12.684 0-.856-.087-1.691-.249-2.5-1.161 5.807-6.286 10.184-12.435 10.184z"/><g><path class="st3" d="M57.383 154.694c6.067-3.503 13.824-1.424 17.327 4.643 3.503 6.067 1.424 13.824-4.643 17.327-6.067 3.503-13.824 1.424-17.327-4.643-3.503-6.067-1.424-13.824 4.643-17.327z"/><path class="st5" d="M70.067 171.664c-6.067 3.503-13.824 1.424-17.327-4.643a12.636 12.636 0 0 1-1.44-3.828 12.623 12.623 0 0 0 1.44 8.828c3.503 6.067 11.26 8.145 17.327 4.643 4.843-2.796 7.134-8.304 6.083-13.498-.692 3.45-2.796 6.6-6.083 8.498z"/><path class="st3" d="M187.551 79.541c6.067-3.503 13.824-1.424 17.327 4.643 3.503 6.067 1.424 13.824-4.643 17.327-6.067 3.503-13.824 1.424-17.327-4.643-3.502-6.067-1.423-13.824 4.643-17.327z"/><path class="st4" d="M182.909 96.868a12.646 12.646 0 0 1-1.434-3.791l-.017.01a12.618 12.618 0 0 0 1.3 8.487l2.717-1.569a12.627 12.627 0 0 1-2.566-3.137z"/><path class="st5" d="M200.236 96.511c-6.067 3.502-13.824 1.424-17.327-4.643a12.636 12.636 0 0 1-1.44-3.828 12.624 12.624 0 0 0 1.44 8.828c3.503 6.067 11.26 8.145 17.327 4.643 4.844-2.796 7.134-8.304 6.083-13.499-.692 3.451-2.796 6.601-6.083 8.499z"/></g><g><path class="st3" d="M187.551 176.459c-6.067-3.503-8.145-11.26-4.643-17.327 3.503-6.067 11.26-8.145 17.327-4.643 6.067 3.503 8.145 11.26 4.643 17.327-3.502 6.067-11.26 8.145-17.327 4.643z"/><path class="st5" d="M204.878 166.816c-3.503 6.067-11.26 8.145-17.327 4.643-3.287-1.898-5.391-5.048-6.083-8.498-1.051 5.195 1.24 10.702 6.083 13.498 6.067 3.503 13.824 1.424 17.327-4.643a12.624 12.624 0 0 0 1.44-8.828 12.61 12.61 0 0 1-1.44 3.828z"/><path class="st3" d="M57.383 101.306c-6.067-3.503-8.145-11.26-4.643-17.327 3.503-6.067 11.26-8.145 17.327-4.643 6.067 3.503 8.145 11.26 4.643 17.327-3.503 6.067-11.26 8.146-17.327 4.643z"/><path class="st4" d="M76.144 92.872a12.646 12.646 0 0 1-1.434 3.791 12.657 12.657 0 0 1-2.567 3.138l2.717 1.569a12.615 12.615 0 0 0 1.3-8.488l-.016-.01z"/><path class="st5" d="M74.71 91.663c-3.503 6.067-11.26 8.146-17.327 4.643-3.287-1.898-5.391-5.048-6.083-8.498-1.051 5.195 1.24 10.702 6.083 13.498 6.067 3.503 13.824 1.424 17.327-4.643a12.619 12.619 0 0 0 1.44-8.828 12.663 12.663 0 0 1-1.44 3.828z"/></g><g><path class="st6" d="M163.043 159.474H92.957a3.214 3.214 0 0 1-3.213-3.213v-48.699a3.214 3.214 0 0 1 3.213-3.213h70.086a3.213 3.213 0 0 1 3.213 3.213v48.699a3.214 3.214 0 0 1-3.213 3.213z"/><path class="st4" d="M124 159.474h8v5h-8z"/><path class="st7" d="M163.043 155.458H92.957a3.214 3.214 0 0 1-3.213-3.213v-48.699a3.214 3.214 0 0 1 3.213-3.213h70.086a3.213 3.213 0 0 1 3.213 3.213v48.699a3.214 3.214 0 0 1-3.213 3.213z"/><path class="st8" d="M127.247 138.84h1.506v16.618h-1.506z"/><path class="st6" d="M128 137.25c16.749 0 31.481-6.641 40.008-16.688a3.17 3.17 0 0 0 .735-2.053v-14.963a3.214 3.214 0 0 0-3.213-3.213H90.47a3.213 3.213 0 0 0-3.213 3.213v14.963c0 .749.251 1.482.735 2.053 8.527 10.047 23.259 16.688 40.008 16.688z"/><path class="st7" d="M165.53 100.333H90.47a3.212 3.212 0 0 0-3.213 3.213v5.623a3.212 3.212 0 0 1 3.213-3.213h75.06a3.212 3.212 0 0 1 3.213 3.213v-5.623a3.213 3.213 0 0 0-3.213-3.213z"/><path class="st3" d="M119.432 98.057h-4.887a.803.803 0 0 0-.803.803v1.473h6.493V98.86a.803.803 0 0 0-.803-.803zM141.455 98.057h-4.887a.803.803 0 0 0-.803.803v1.473h6.493V98.86a.803.803 0 0 0-.803-.803z"/><path class="st7" d="M137.402 98.057h3.223c-.275-4.248-5.713-7.531-12.625-7.531s-12.35 3.283-12.625 7.531h3.223c.366-2.107 4.12-4.318 9.402-4.318s9.036 2.211 9.402 4.318z"/><path class="st6" d="M137.402 98.057h1.613c-.309-3.3-5.114-5.924-11.015-5.924-5.901 0-10.706 2.624-11.015 5.924h1.613c.366-2.107 4.12-4.318 9.402-4.318s9.036 2.211 9.402 4.318z"/><path class="st7" d="M124.084 100.316h7.833v29.788h-7.833z"/><path class="st8" d="M124.084 100.316h7.833v5.64h-7.833z"/><g><path d="M133.919 138.84h-11.837a1.061 1.061 0 0 1-1.062-1.062v-6.612c0-.587.475-1.062 1.062-1.062h11.837c.587 0 1.062.475 1.062 1.062v6.612c0 .586-.476 1.062-1.062 1.062z" style="fill:#fff335"/><path class="st10" d="M133.919 137.816h-11.838a1.062 1.062 0 0 1-1.062-1.062v1.024c0 .587.476 1.062 1.062 1.062h11.838c.586 0 1.062-.475 1.062-1.062v-1.024c0 .587-.476 1.062-1.062 1.062zM131.628 135.486h-7.255a.936.936 0 0 1-.936-.936v-1.092c0-.517.419-.936.936-.936h7.255c.517 0 .936.419.936.936v1.092c0 .517-.42.936-.936.936z"/></g></g></g></g></switch></svg>